{
  "accessors": [
    {
      "bufferView": 2,
      "componentType": 5126,
      "count": 22476,
      "max": [
        0.008647876791656017,
        0.008647880516946316,
        0.009400000795722008
      ],
      "min": [
        -0.008647876791656017,
        -0.008647880516946316,
        -0.009400000795722008
      ],
      "type": "VEC3"
    },
    {
      "bufferView": 2,
      "byteOffset": 269712,
      "componentType": 5126,
      "count": 22476,
      "max": [
        0.9999198317527771,
        0.9999198913574219,
        1.0
      ],
      "min": [
        -0.9999198913574219,
        -0.9998875856399536,
        -1.0
      ],
      "type": "VEC3"
    },
    {
      "bufferView": 1,
      "componentType": 5126,
      "count": 22476,
      "max": [
        0.0,
        0.0
      ],
      "min": [
        0.0,
        0.0
      ],
      "type": "VEC2"
    },
    {
      "bufferView": 0,
      "componentType": 5125,
      "count": 34656,
      "type": "SCALAR"
    },
    {
      "bufferView": 2,
      "byteOffset": 539424,
      "componentType": 5126,
      "count": 7327,
      "max": [
        0.007687513716518879,
        0.007687512785196304,
        0.009756350889801979
      ],
      "min": [
        -0.0076875146478414536,
        -0.007687515579164028,
        -0.0025999995414167643
      ],
      "type": "VEC3"
    },
    {
      "bufferView": 2,
      "byteOffset": 627348,
      "componentType": 5126,
      "count": 7327,
      "max": [
        0.9941364526748657,
        0.9941364526748657,
        1.0
      ],
      "min": [
        -0.9941365122795105,
        -0.9941362738609314,
        -1.0
      ],
      "type": "VEC3"
    },
    {
      "bufferView": 1,
      "byteOffset": 179808,
      "componentType": 5126,
      "count": 7327,
      "max": [
        1.0000001192092896,
        0.9375000596046448
      ],
      "min": [
        0.0,
        0.0
      ],
      "type": "VEC2"
    },
    {
      "bufferView": 0,
      "byteOffset": 138624,
      "componentType": 5125,
      "count": 36828,
      "type": "SCALAR"
    },
    {
      "bufferView": 2,
      "byteOffset": 715272,
      "componentType": 5126,
      "count": 6912,
      "max": [
        0.0077500008046627045,
        0.00774999987334013,
        0.09611675143241882
      ],
      "min": [
        -0.007749998942017555,
        -0.0077500008046627045,
        -0.007234499789774418
      ],
      "type": "VEC3"
    },
    {
      "bufferView": 2,
      "byteOffset": 798216,
      "componentType": 5126,
      "count": 6912,
      "max": [
        0.9999964833259583,
        0.9999964833259583,
        0.9999970197677612
      ],
      "min": [
        -0.9999964833259583,
        -0.9999964833259583,
        -0.9998014569282532
      ],
      "type": "VEC3"
    },
    {
      "bufferView": 0,
      "byteOffset": 285936,
      "componentType": 5125,
      "count": 41460,
      "type": "SCALAR"
    }
  ],
  "asset": {
    "extras": {
      "author": "YouniqueĪdeaStudio (https://sketchfab.com/sinnervoncrawsz)",
      "license": "CC-BY-4.0 (http://creativecommons.org/licenses/by/4.0/)",
      "source": "https://sketchfab.com/3d-models/test-tube-c0dd417a4f5444c9a2bcf1dc2eb084c7",
      "title": "Test Tube"
    },
    "generator": "Sketchfab-14.11.0",
    "version": "2.0"
  },
  "bufferViews": [
    {
      "buffer": 0,
      "byteLength": 451776,
      "name": "floatBufferViews",
      "target": 34963
    },
    {
      "buffer": 0,
      "byteLength": 238424,
      "byteOffset": 451776,
      "byteStride": 8,
      "name": "floatBufferViews",
      "target": 34962
    },
    {
      "buffer": 0,
      "byteLength": 881160,
      "byteOffset": 690200,
      "byteStride": 12,
      "name": "floatBufferViews",
      "target": 34962
    }
  ],
  "buffers": [
    {
      "byteLength": 1571360,
      "uri": "test-tube-2.bin"
    }
  ],
  "extensionsUsed": [
    "KHR_materials_clearcoat",
    "KHR_materials_transmission"
  ],
  "materials": [
    {
      "doubleSided": true,
      "name": "Material",
      "pbrMetallicRoughness": {
        "baseColorFactor": [
          0.0022869664543367207,
          0.09243455326031673,
          0.0013986264310085663,
          1.0
        ],
        "metallicFactor": 0.0,
        "roughnessFactor": 0.3543351889649547
      }
    },
    {
      "doubleSided": true,
      "name": "Material.001",
      "pbrMetallicRoughness": {
        "baseColorFactor": [
          0.0177715,
          0.0225296,
          0.0236507,
          1.0
        ],
        "metallicFactor": 0.0,
        "roughnessFactor": 0.7562386971748531
      }
    },
    {
      "alphaMode": "BLEND",
      "doubleSided": true,
      "extensions": {
        "KHR_materials_clearcoat": {
          "clearcoatFactor": 1.0,
          "clearcoatRoughnessFactor": 0.04
        },
        "KHR_materials_transmission": {
          "transmissionFactor": 0.884477040551072
        }
      },
      "name": "Material.009",
      "pbrMetallicRoughness": {
        "baseColorFactor": [
          0.0,
          0.0,
          0.0,
          0.25
        ],
        "metallicFactor": 0.0,
        "roughnessFactor": 0.0
      }
    }
  ],
  "meshes": [
    {
      "name": "CAPAC_Material_0",
      "primitives": [
        {
          "attributes": {
            "NORMAL": 1,
            "POSITION": 0,
            "TEXCOORD_0": 2
          },
          "indices": 3,
          "material": 0,
          "mode": 4
        }
      ]
    },
    {
      "name": "CAPAC.001_Material.001_0",
      "primitives": [
        {
          "attributes": {
            "NORMAL": 5,
            "POSITION": 4,
            "TEXCOORD_0": 6
          },
          "indices": 7,
          "material": 1,
          "mode": 4
        }
      ]
    },
    {
      "name": "tube_Material.009_0",
      "primitives": [
        {
          "attributes": {
            "NORMAL": 9,
            "POSITION": 8
          },
          "indices": 10,
          "material": 2,
          "mode": 4
        }
      ]
    }
  ],
  "nodes": [
    {
      "children": [
        1
      ],
      "matrix": [
        1.2110166501174433,
        -0.19714705166979127,
        -0.0848399029892715,
        0.0,
        0.0,
        0.4861625698187029,
        -1.1297221064923662,
        0.0,
        0.21462705105016155,
        1.1123871085117685,
        0.4787026583200389,
        0.0,
        0.0,
        0.0,
        0.0,
        1.0
      ],
      "name": "Sketchfab_model"
    },
    {
      "children": [
        2
      ],
      "matrix": [
        0.009999999776482582,
        0.0,
        0.0,
        0.0,
        0.0,
        0.0,
        0.009999999776482582,
        0.0,
        0.0,
        -0.009999999776482582,
        0.0,
        0.0,
        0.0,
        0.0,
        0.0,
        1.0
      ],
      "name": "71b24187477e4925a24822aaf736a6db.fbx"
    },
    {
      "children": [
        3,
        5,
        7
      ],
      "name": "RootNode"
    },
    {
      "children": [
        4
      ],
      "matrix": [
        100.0,
        0.0,
        0.0,
        0.0,
        0.0,
        -1.629206793918314e-05,
        -99.99999999999868,
        0.0,
        0.0,
        99.99999999999868,
        -1.629206793918314e-05,
        0.0,
        0.0,
        0.0,
        0.0,
        1.0
      ],
      "name": "CAPAC"
    },
    {
      "mesh": 0,
      "name": "CAPAC_Material_0"
    },
    {
      "children": [
        6
      ],
      "matrix": [
        100.0,
        0.0,
        0.0,
        0.0,
        0.0,
        -1.629206793918314e-05,
        -99.99999999999868,
        0.0,
        0.0,
        99.99999999999868,
        -1.629206793918314e-05,
        0.0,
        0.0,
        0.0,
        0.0,
        1.0
      ],
      "name": "CAPAC.001"
    },
    {
      "mesh": 1,
      "name": "CAPAC.001_Material.001_0"
    },
    {
      "children": [
        8
      ],
      "matrix": [
        100.0,
        0.0,
        0.0,
        0.0,
        0.0,
        -1.629206793918314e-05,
        -99.99999999999868,
        0.0,
        0.0,
        99.99999999999868,
        -1.629206793918314e-05,
        0.0,
        0.0,
        -9.351635932922363,
        0.0,
        1.0
      ],
      "name": "tube"
    },
    {
      "mesh": 2,
      "name": "tube_Material.009_0"
    }
  ],
  "scene": 0,
  "scenes": [
    {
      "name": "Sketchfab_Scene",
      "nodes": [
        0
      ]
    }
  ]
}
